<?xml version="1.0" standalone="no"?>
<!DOCTYPE svg PUBLIC "-//W3C//DTD SVG 20010904//EN"
 "http://www.w3.org/TR/2001/REC-SVG-20010904/DTD/svg10.dtd">
<svg version="1.0" xmlns="http://www.w3.org/2000/svg"
 width="145.000000pt" height="84.000000pt" viewBox="0 0 145.000000 84.000000"
 preserveAspectRatio="xMidYMid meet">

<g transform="translate(0.000000,84.000000) scale(0.100000,-0.100000)"
fill="#000000" stroke="none">
<path d="M207 800 c-8 -31 15 -77 76 -156 30 -38 56 -76 60 -84 3 -10 6 -10 6
-2 1 17 -42 84 -85 132 -26 28 -36 50 -39 80 -5 49 -10 59 -18 30z"/>
<path d="M146 717 c3 -10 9 -15 12 -12 3 3 0 11 -7 18 -10 9 -11 8 -5 -6z"/>
<path d="M364 715 c-4 -9 -1 -37 6 -63 6 -26 14 -87 18 -137 4 -60 8 -80 12
-60 l6 30 16 -30 c26 -49 49 -125 63 -205 12 -68 13 -70 14 -29 1 60 -19 134
-68 242 -11 26 -21 58 -21 70 0 18 5 22 32 21 30 -1 33 -4 39 -40 l6 -39 2 43
c0 26 -5 49 -14 58 -22 22 -7 44 29 44 39 0 56 -15 56 -52 0 -18 5 -28 15 -28
10 0 15 10 15 28 0 38 13 54 41 50 16 -2 25 -11 27 -25 2 -16 10 -23 25 -23
30 0 44 -11 56 -40 8 -19 10 -21 10 -6 1 17 -43 79 -50 71 -2 -2 -15 12 -29
30 -26 35 -83 73 -122 81 -13 2 -42 7 -66 11 l-43 6 18 -32 c10 -17 21 -31 26
-31 4 0 7 -5 7 -10 0 -18 -57 18 -80 50 -24 33 -38 38 -46 15z"/>
<path d="M321 697 c17 -32 19 -33 19 -10 0 12 -7 23 -15 27 -13 5 -14 2 -4
-17z"/>
<path d="M322 640 c7 -11 17 -20 22 -20 5 0 1 9 -9 20 -10 11 -20 20 -22 20
-2 0 2 -9 9 -20z"/>
<path d="M49 633 c-13 -16 -12 -17 4 -4 9 7 17 15 17 17 0 8 -8 3 -21 -13z"/>
<path d="M159 603 c4 -15 6 -34 3 -42 -3 -9 0 -11 8 -6 9 5 11 4 6 -4 -6 -8
-12 -9 -20 -2 -10 8 -13 3 -13 -20 0 -16 3 -25 7 -19 5 7 18 2 40 -16 31 -27
31 -28 11 -36 -12 -4 -29 -5 -39 -2 -10 3 -8 0 4 -7 12 -6 26 -21 32 -33 5
-11 28 -42 50 -67 23 -26 40 -48 37 -50 -2 -3 5 -15 17 -29 11 -14 17 -19 13
-12 -10 19 15 14 81 -17 34 -16 64 -37 68 -46 3 -10 9 -15 12 -12 12 12 -18
46 -71 78 -76 46 -139 129 -176 232 -16 45 -33 89 -36 97 -3 8 -7 19 -7 25 -1
5 -9 11 -18 13 -14 3 -16 -1 -9 -25z"/>
<path d="M616 603 c-3 -4 -6 -24 -6 -45 0 -38 -1 -39 -32 -36 -29 3 -34 7 -38
38 -4 30 -9 35 -35 38 -18 2 -25 -1 -18 -5 7 -5 13 -41 15 -93 2 -70 6 -85 20
-88 13 -3 17 6 20 40 3 40 5 43 35 46 31 3 32 2 35 -40 3 -39 6 -43 31 -46 15
-2 27 1 27 7 0 6 -4 11 -10 11 -6 0 -10 35 -10 84 0 63 -4 85 -14 89 -8 3 -17
3 -20 0z m-84 -54 c2 -22 1 -62 -2 -87 -6 -41 -7 -35 -11 41 -4 87 5 123 13
46z m103 -44 c0 -46 -3 -81 -7 -77 -12 13 -13 162 0 162 4 0 7 -38 7 -85z"/>
<path d="M1035 590 c-3 -5 -3 -15 1 -21 3 -6 0 -16 -7 -21 -11 -7 -11 -11 -1
-15 8 -3 12 -26 12 -64 0 -52 2 -59 20 -59 18 0 20 7 20 64 0 36 -5 68 -11 72
-8 4 -8 9 0 17 7 7 7 14 0 24 -14 16 -26 17 -34 3z m33 -113 c2 -32 -1 -57 -7
-57 -5 0 -11 27 -13 60 -2 37 1 59 7 57 6 -2 11 -29 13 -60z"/>
<path d="M823 553 l-62 -4 -3 -57 c-2 -43 -7 -57 -18 -57 -11 0 -16 15 -20 55
-5 52 -6 55 -35 58 -24 3 -28 1 -17 -9 6 -7 12 -30 12 -52 0 -63 13 -77 70
-76 l50 2 0 58 c0 46 3 59 15 59 12 0 15 -13 15 -60 0 -53 2 -60 20 -60 16 0
19 8 22 55 4 71 22 71 26 0 3 -47 6 -55 22 -55 17 0 20 8 21 58 1 31 1 59 1
62 0 3 11 6 26 5 26 0 27 -2 28 -60 1 -53 1 -54 -3 -10 -6 75 -25 84 -21 10 2
-48 7 -60 21 -63 15 -3 17 5 17 57 0 78 -24 106 -70 81 -13 -7 -21 -7 -25 0
-3 5 -12 9 -18 8 -7 -1 -40 -3 -74 -5z m-111 -81 c3 -29 2 -50 -2 -45 -4 4
-10 32 -12 61 -3 29 -2 50 2 45 4 -4 10 -32 12 -61z m78 6 c0 -34 -3 -58 -7
-54 -9 9 -10 116 0 116 4 0 7 -28 7 -62z m61 1 c-4 -73 -8 -73 -13 0 -2 36 1
60 7 58 5 -2 8 -28 6 -58z m77 -2 c2 -32 -1 -57 -7 -57 -5 0 -11 27 -13 60 -2
37 1 59 7 57 6 -2 11 -29 13 -60z"/>
<path d="M1122 544 c-27 -19 -31 -93 -6 -118 19 -20 64 -21 90 -2 26 20 10 32
-21 16 -34 -18 -48 -3 -43 49 4 41 -5 55 -16 25 -9 -24 -7 -62 4 -69 6 -3 10
-11 10 -17 0 -7 -6 -6 -15 2 -19 16 -20 84 -1 99 15 13 66 -1 66 -19 0 -5 5
-10 10 -10 18 0 11 39 -9 50 -27 14 -43 13 -69 -6z m78 -14 c0 -5 -2 -10 -4
-10 -3 0 -8 5 -11 10 -3 6 -1 10 4 10 6 0 11 -4 11 -10z"/>
<path d="M770 371 c0 -11 5 -23 10 -26 6 -4 10 5 10 19 0 14 -4 26 -10 26 -5
0 -10 -9 -10 -19z"/>
<path d="M530 371 c0 -6 5 -13 10 -16 6 -3 10 -44 10 -91 0 -77 2 -84 20 -84
17 0 20 7 20 46 0 45 0 45 33 42 29 -3 32 -6 37 -43 4 -32 9 -41 28 -43 22 -3
30 12 12 23 -5 3 -10 44 -10 91 0 66 -3 84 -14 84 -10 0 -16 -14 -18 -42 -3
-40 -5 -43 -33 -43 -26 0 -30 4 -33 30 -2 17 -8 36 -14 43 -12 14 -48 16 -48
3z m44 -17 c10 -25 7 -154 -3 -154 -5 0 -11 38 -13 85 -3 81 2 104 16 69z
m108 -101 c2 -34 0 -59 -4 -55 -8 9 -12 72 -8 132 4 51 8 25 12 -77z"/>
<path d="M1361 341 c-13 -18 -17 -32 -11 -36 5 -3 10 -28 10 -54 0 -30 6 -53
14 -61 18 -14 58 -10 64 8 3 9 -3 12 -14 10 -16 -2 -19 5 -22 45 -3 38 0 47
13 47 9 0 15 6 12 13 -2 6 -10 11 -16 10 -6 -2 -11 6 -11 16 0 32 -17 33 -39
2z m22 -50 c-2 -34 0 -69 7 -80 8 -17 8 -19 -4 -15 -22 8 -28 154 -6 154 4 0
6 -27 3 -59z"/>
<path d="M230 291 c0 -31 -5 -53 -15 -61 -8 -7 -15 -18 -15 -24 1 -6 10 0 20
13 13 14 20 38 20 63 0 35 2 39 15 28 9 -7 18 -11 21 -8 2 3 -7 13 -21 22
l-25 16 0 -49z"/>
<path d="M743 324 c-13 -6 -18 -44 -6 -44 3 0 14 7 23 15 15 14 18 14 30 0 10
-12 9 -16 -6 -21 -53 -17 -64 -25 -64 -48 0 -33 19 -45 68 -43 l42 1 0 56 c0
30 -4 61 -8 67 -9 14 -61 25 -79 17z m77 -75 c0 -27 -3 -49 -7 -49 -5 0 -8 25
-9 55 0 30 3 52 8 49 4 -3 8 -27 8 -55z m-56 -1 c-5 -8 -2 -9 9 -5 26 10 31
-13 9 -36 -17 -17 -23 -18 -36 -7 -21 17 -20 37 2 49 22 13 25 13 16 -1z"/>
<path d="M747 234 c-6 -10 9 -42 16 -34 3 3 1 14 -3 24 -3 11 -9 15 -13 10z"/>
<path d="M844 318 c-2 -4 0 -9 6 -13 5 -3 10 -33 10 -66 0 -52 2 -60 18 -57
13 2 18 16 22 58 4 47 8 55 25 53 11 -1 23 3 26 9 12 18 26 0 49 -62 12 -33
26 -60 31 -60 14 0 31 40 24 58 -3 9 -3 13 1 9 9 -8 34 47 34 72 -1 12 -5 11
-20 -8 -11 -13 -20 -29 -20 -37 0 -23 -14 -15 -35 19 -20 31 -22 32 -94 32
-40 0 -75 -3 -77 -7z m39 -68 c0 -28 -3 -54 -7 -57 -3 -3 -6 22 -6 57 0 35 3
60 6 57 4 -3 7 -29 7 -57z m137 10 c13 -27 20 -53 17 -57 -4 -3 -14 11 -22 33
-9 21 -20 47 -25 57 -6 9 -6 17 -2 17 5 0 19 -22 32 -50z"/>
<path d="M1120 310 c-26 -26 -27 -90 -2 -113 23 -21 66 -22 82 -2 20 24 4 30
-26 11 -24 -17 -27 -17 -45 0 -24 22 -25 77 -2 95 14 12 16 12 8 0 -21 -35
-10 -101 17 -101 9 0 9 3 0 12 -20 20 -14 27 26 30 29 2 38 8 40 25 4 26 -30
63 -58 63 -11 0 -29 -9 -40 -20z m83 -30 c3 -11 2 -22 -3 -25 -4 -3 -10 8 -12
25 -5 32 6 32 15 0z m-25 2 c2 -7 -6 -12 -17 -12 -21 0 -27 11 -14 24 9 9 26
2 31 -12z"/>
<path d="M1248 319 c-31 -18 -22 -57 17 -76 36 -17 43 -27 24 -38 -5 -4 -19 1
-30 11 -22 20 -38 11 -23 -14 6 -10 27 -18 47 -20 31 -3 39 1 49 22 9 22 8 29
-7 46 -10 11 -26 22 -36 25 -26 9 -24 22 5 27 16 3 23 1 19 -8 -2 -6 0 -15 6
-19 15 -9 14 28 -1 43 -15 15 -47 15 -70 1z m10 -26 c-2 -10 7 -22 23 -30 43
-21 55 -41 36 -60 -15 -15 -16 -15 -10 5 4 17 -3 26 -31 43 -34 20 -44 38 -29
52 11 11 14 8 11 -10z"/>
<path d="M330 220 c6 -11 13 -20 16 -20 2 0 0 9 -6 20 -6 11 -13 20 -16 20 -2
0 0 -9 6 -20z"/>
<path d="M675 133 c-71 -67 -142 -96 -230 -96 -78 1 -141 20 -194 60 -20 15
-30 19 -22 9 25 -31 97 -66 163 -80 127 -27 261 20 329 115 32 46 6 41 -46 -8z"/>
<path d="M425 125 c11 -8 27 -21 36 -30 17 -17 69 -12 69 6 0 6 -8 5 -19 -1
-22 -11 -48 -14 -38 -3 4 3 -7 15 -23 25 -36 21 -54 24 -25 3z"/>
</g>
</svg>
